<svg xmlns="http://www.w3.org/2000/svg" width="60" height="60" viewBox="0 0 60 60" fill="none">
  <g clip-path="url(#clip0_722_256)">
    <path d="M10.253 0H49.7467C55.4057 0 60 4.59432 60 10.2532V49.7468C60 55.4057 55.4057 60 49.7467 60H10.2537C4.59468 60 0.000244141 55.4056 0.000244141 49.7465V10.2528C0.000244141 4.59412 4.59437 0 10.253 0Z" fill="#1677F0"/>
    <path d="M41.1688 60V36.9642H48.9011L50.0589 27.9865H41.1688V22.2538C41.1688 19.6554 41.89 17.8841 45.6178 17.8841L50.3714 17.8819V9.8524C49.5486 9.74302 46.7275 9.4989 43.4436 9.4989C36.5904 9.4989 31.8975 13.6829 31.8975 21.3658V27.9865H24.146V36.9642H31.8975V60H41.1688Z" fill="white"/>
  </g>
  <defs>
    <clipPath id="clip0_722_256">
      <rect width="60" height="60" fill="white"/>
    </clipPath>
  </defs>
</svg>