<svg xmlns="http://www.w3.org/2000/svg" width="60" height="60" viewBox="0 0 60 60" fill="none">
  <g clip-path="url(#clip0_722_260)">
    <path d="M59.4001 30.666C59.4001 28.2 59.2021 26.4 58.7641 24.534H30.6001V35.67H47.1361C46.8001 38.436 45.0001 42.6 40.9981 45.402L40.9441 45.774L49.8481 52.674L50.4661 52.734C56.1361 47.502 59.4001 39.798 59.4001 30.666Z" fill="#4285F4"/>
    <path d="M30.6002 60C38.7002 60 45.4982 57.336 50.4662 52.734L40.9982 45.402C38.4662 47.166 35.0642 48.402 30.6002 48.402C22.6682 48.402 15.9362 43.17 13.5362 35.934L13.1822 35.964L3.9242 43.128L3.8042 43.464C8.7362 53.268 18.8642 60 30.6002 60Z" fill="#34A853"/>
    <path d="M13.5361 35.934C12.9001 34.068 12.5341 32.07 12.5341 30C12.5341 27.936 12.9001 25.932 13.5001 24.066L13.4821 23.67L4.1041 16.386L3.7981 16.53C1.7641 20.598 0.600098 25.164 0.600098 30C0.600098 34.836 1.7641 39.402 3.7981 43.464L13.5361 35.934Z" fill="#FBBC05"/>
    <path d="M30.5999 11.598C36.2339 11.598 40.0319 14.034 42.1978 16.062L50.6639 7.8C45.4678 2.964 38.6999 0 30.5999 0C18.8639 0 8.73585 6.732 3.79785 16.536L13.4999 24.066C15.9359 16.836 22.6679 11.598 30.5999 11.598Z" fill="#EB4335"/>
  </g>
  <defs>
    <clipPath id="clip0_722_260">
      <rect width="60" height="60" fill="white"/>
    </clipPath>
  </defs>
</svg>