<svg xmlns="http://www.w3.org/2000/svg" width="30" height="31" viewBox="0 0 30 31" fill="none">
  <g clip-path="url(#clip0_1011_5038)">
    <path d="M7.24222 23.1191C7.99808 22.5684 8.97659 22.4277 9.8555 22.7441C11.4082 23.3066 13.1485 23.6289 15 23.6289C22.3067 23.6289 27.1875 18.9121 27.1875 14.2539C27.1875 9.5957 22.3067 4.87891 15 4.87891C7.69339 4.87891 2.81253 9.5957 2.81253 14.2539C2.81253 16.1289 3.53909 17.9336 4.90433 19.4805C5.40823 20.0488 5.65433 20.7988 5.59573 21.5605C5.5137 22.6211 5.26175 23.5938 4.93362 24.4551C5.92972 23.9922 6.75589 23.4766 7.24222 23.125V23.1191ZM1.24222 25.498C1.34768 25.3398 1.44729 25.1816 1.54104 25.0234C2.12698 24.0508 2.68362 22.7734 2.79495 21.3379C1.03714 19.3398 2.86186e-05 16.8965 2.86186e-05 14.2539C2.86186e-05 7.52148 6.71487 2.06641 15 2.06641C23.2852 2.06641 30 7.52148 30 14.2539C30 20.9863 23.2852 26.4414 15 26.4414C12.8262 26.4414 10.7637 26.0664 8.90042 25.3926C8.20315 25.9023 7.06643 26.5996 5.71878 27.1855C4.83401 27.5723 3.8262 27.9238 2.78323 28.1289C2.73636 28.1406 2.68948 28.1465 2.64261 28.1582C2.38479 28.2051 2.13284 28.2461 1.86917 28.2695C1.85745 28.2695 1.83987 28.2754 1.82815 28.2754C1.52933 28.3047 1.2305 28.3223 0.931669 28.3223C0.55081 28.3223 0.210966 28.0938 0.0644818 27.7422C-0.0820026 27.3906 2.86065e-05 26.9922 0.2637 26.7227C0.503935 26.4766 0.720732 26.2129 0.92581 25.9316C1.02542 25.7969 1.11917 25.6621 1.20706 25.5273C1.21292 25.5156 1.21878 25.5098 1.22464 25.498H1.24222Z" fill="#389B87"/>
  </g>
  <defs>
    <clipPath id="clip0_1011_5038">
      <rect width="30" height="30" fill="white" transform="translate(0 0.191406)"/>
    </clipPath>
  </defs>
</svg>