<svg xmlns="http://www.w3.org/2000/svg" width="30" height="31" viewBox="0 0 30 31" fill="none">
  <path d="M3.33333 4.56738C1.49479 4.56738 0 6.24902 0 8.31738V12.0674C0 12.583 0.385417 12.9873 0.817708 13.1572C1.79687 13.5381 2.5 14.5869 2.5 15.8174C2.5 17.0479 1.79687 18.0967 0.817708 18.4775C0.385417 18.6475 0 19.0518 0 19.5674V23.3174C0 25.3857 1.49479 27.0674 3.33333 27.0674H26.6667C28.5052 27.0674 30 25.3857 30 23.3174V19.5674C30 19.0518 29.6146 18.6475 29.1823 18.4775C28.2031 18.0967 27.5 17.0479 27.5 15.8174C27.5 14.5869 28.2031 13.5381 29.1823 13.1572C29.6146 12.9873 30 12.583 30 12.0674V8.31738C30 6.24902 28.5052 4.56738 26.6667 4.56738H3.33333ZM6.66667 11.1299V20.5049C6.66667 21.0205 7.04167 21.4424 7.5 21.4424H22.5C22.9583 21.4424 23.3333 21.0205 23.3333 20.5049V11.1299C23.3333 10.6143 22.9583 10.1924 22.5 10.1924H7.5C7.04167 10.1924 6.66667 10.6143 6.66667 11.1299ZM5 10.1924C5 9.15527 5.74479 8.31738 6.66667 8.31738H23.3333C24.2552 8.31738 25 9.15527 25 10.1924V21.4424C25 22.4795 24.2552 23.3174 23.3333 23.3174H6.66667C5.74479 23.3174 5 22.4795 5 21.4424V10.1924Z" fill="#389B87"/>
</svg>