<svg xmlns="http://www.w3.org/2000/svg" width="30" height="31" viewBox="0 0 30 31" fill="none">
  <g clip-path="url(#clip0_1011_5030)">
    <path d="M26.25 8.43896H22.5C22.5 6.44984 21.7098 4.54219 20.3033 3.13566C18.8968 1.72914 16.9891 0.938965 15 0.938965C13.0109 0.938965 11.1032 1.72914 9.6967 3.13566C8.29018 4.54219 7.5 6.44984 7.5 8.43896H3.75C2.75544 8.43896 1.80161 8.83405 1.09835 9.53731C0.395088 10.2406 0 11.1944 0 12.189L0 24.689C0.00198482 26.346 0.661102 27.9345 1.83277 29.1062C3.00445 30.2779 4.59301 30.937 6.25 30.939H23.75C25.407 30.937 26.9956 30.2779 28.1672 29.1062C29.3389 27.9345 29.998 26.346 30 24.689V12.189C30 11.1944 29.6049 10.2406 28.9017 9.53731C28.1984 8.83405 27.2446 8.43896 26.25 8.43896ZM15 3.43896C16.3261 3.43896 17.5979 3.96575 18.5355 4.90343C19.4732 5.84111 20 7.11288 20 8.43896H10C10 7.11288 10.5268 5.84111 11.4645 4.90343C12.4021 3.96575 13.6739 3.43896 15 3.43896ZM27.5 24.689C27.5 25.6835 27.1049 26.6374 26.4017 27.3406C25.6984 28.0439 24.7446 28.439 23.75 28.439H6.25C5.25544 28.439 4.30161 28.0439 3.59835 27.3406C2.89509 26.6374 2.5 25.6835 2.5 24.689V12.189C2.5 11.8574 2.6317 11.5395 2.86612 11.3051C3.10054 11.0707 3.41848 10.939 3.75 10.939H7.5V13.439C7.5 13.7705 7.6317 14.0884 7.86612 14.3228C8.10054 14.5573 8.41848 14.689 8.75 14.689C9.08152 14.689 9.39946 14.5573 9.63388 14.3228C9.8683 14.0884 10 13.7705 10 13.439V10.939H20V13.439C20 13.7705 20.1317 14.0884 20.3661 14.3228C20.6005 14.5573 20.9185 14.689 21.25 14.689C21.5815 14.689 21.8995 14.5573 22.1339 14.3228C22.3683 14.0884 22.5 13.7705 22.5 13.439V10.939H26.25C26.5815 10.939 26.8995 11.0707 27.1339 11.3051C27.3683 11.5395 27.5 11.8574 27.5 12.189V24.689Z" fill="#389B87"/>
  </g>
  <defs>
    <clipPath id="clip0_1011_5030">
      <rect width="30" height="30" fill="white" transform="translate(0 0.938965)"/>
    </clipPath>
  </defs>
</svg>