<svg xmlns="http://www.w3.org/2000/svg" width="30" height="32" viewBox="0 0 30 32" fill="none">
  <path d="M16.5052 1.64452C16.2291 0.985077 15.6458 0.56543 15.0052 0.56543C14.3646 0.56543 13.7864 0.985077 13.5052 1.64452L10.1562 9.57587L2.67705 10.8468C2.05205 10.9547 1.53122 11.4583 1.33851 12.1477C1.1458 12.8371 1.30205 13.5985 1.74997 14.1081L7.17705 20.2889L5.8958 29.0235C5.79164 29.7429 6.05205 30.4743 6.56768 30.9C7.0833 31.3256 7.76559 31.3796 8.32809 31.0379L15.0104 26.9313L21.6927 31.0379C22.2552 31.3796 22.9375 31.3316 23.4531 30.9C23.9687 30.4683 24.2291 29.7429 24.125 29.0235L22.8385 20.2889L28.2656 14.1081C28.7135 13.5985 28.875 12.8371 28.677 12.1477C28.4791 11.4583 27.9635 10.9547 27.3385 10.8468L19.8541 9.57587L16.5052 1.64452Z" fill="#389B87"/>
</svg>