<svg xmlns="http://www.w3.org/2000/svg" width="30" height="31" viewBox="0 0 30 31" fill="none">
  <path d="M29.7286 27.2456C30.357 28.2084 29.8569 29.4921 28.6116 30.1128C27.3662 30.7334 25.8472 30.456 25.2188 29.4931L15 13.8356L4.78118 29.4931C4.15277 30.456 2.63378 30.7334 1.38843 30.1128C0.143074 29.4921 -0.357049 28.2084 0.271369 27.2456L12.0117 9.25684L8.34723 3.64212C7.71882 2.67925 8.21894 1.39555 9.46429 0.774899C10.7096 0.15425 12.2286 0.431678 12.8571 1.39456L15 4.67803L17.143 1.39456C17.7714 0.43168 19.2904 0.154251 20.5357 0.7749C21.7811 1.39555 22.2812 2.67925 21.6528 3.64212L17.9883 9.25684L29.7286 27.2456Z" fill="#389B87"/>
  <path d="M14.6328 22.1869C14.9055 21.7122 15.6651 21.7122 15.9378 22.1869L19.8183 28.9419C20.0688 29.3779 19.7144 29.8963 19.1658 29.8963H11.4049C10.8563 29.8963 10.5019 29.3779 10.7524 28.9419L14.6328 22.1869Z" fill="#389B87"/>
</svg>