<svg xmlns="http://www.w3.org/2000/svg" width="28" height="31" viewBox="0 0 28 31" fill="none">
  <path d="M19 7.81348C19 6.57027 18.4732 5.37799 17.5355 4.49891C16.5979 3.61984 15.3261 3.12598 14 3.12598C12.6739 3.12598 11.4021 3.61984 10.4645 4.49891C9.52678 5.37799 9 6.57027 9 7.81348C9 9.05668 9.52678 10.249 10.4645 11.128C11.4021 12.0071 12.6739 12.501 14 12.501C15.3261 12.501 16.5979 12.0071 17.5355 11.128C18.4732 10.249 19 9.05668 19 7.81348ZM6 7.81348C6 5.82435 6.84285 3.9167 8.34315 2.51018C9.84344 1.10365 11.8783 0.313477 14 0.313477C16.1217 0.313477 18.1566 1.10365 19.6569 2.51018C21.1571 3.9167 22 5.82435 22 7.81348C22 9.8026 21.1571 11.7103 19.6569 13.1168C18.1566 14.5233 16.1217 15.3135 14 15.3135C11.8783 15.3135 9.84344 14.5233 8.34315 13.1168C6.84285 11.7103 6 9.8026 6 7.81348ZM3.08125 27.501H24.9188C24.3625 23.792 20.9625 20.9385 16.8563 20.9385H11.1438C7.0375 20.9385 3.6375 23.792 3.08125 27.501ZM0 28.5732C0 22.8018 4.9875 18.126 11.1438 18.126H16.8563C23.0125 18.126 28 22.8018 28 28.5732C28 29.5342 27.1687 30.3135 26.1437 30.3135H1.85625C0.83125 30.3135 0 29.5342 0 28.5732Z" fill="#389B87"/>
</svg>