<svg width="216" height="109" viewBox="0 0 216 109" fill="none" xmlns="http://www.w3.org/2000/svg">
<path d="M185.604 61.6348C190.339 64.7614 193.029 69.6212 192.961 74.9567C192.859 84.4044 184.684 89.434 178.825 89.434C176.986 89.434 175.181 89.1282 173.444 88.5165C171.229 87.9047 168.913 86.3075 168.913 83.4528C168.913 79.3407 172.864 78.4231 174.636 78.729C174.955 78.7839 175.229 78.8745 175.536 78.9765C176.179 79.1896 176.973 79.4526 178.655 79.5446C179.336 79.4766 182.743 78.4911 182.743 74.7868V74.7528C182.674 70.5727 178.246 68.6356 174.057 69.0094M185.604 61.6348L185.329 62.0523M185.604 61.6348L185.328 62.0521C185.328 62.0522 185.329 62.0523 185.329 62.0523M185.604 61.6348L151.779 90.1993M185.329 62.0523C189.933 65.0926 192.527 69.7984 192.461 74.9503L192.461 74.9513C192.363 84.0691 184.47 88.934 178.825 88.934C177.042 88.934 175.293 88.6376 173.61 88.0449L173.593 88.0391L173.577 88.0345C171.448 87.4464 169.413 85.9708 169.413 83.4528C169.413 81.5909 170.292 80.4902 171.362 79.8661C172.465 79.2227 173.776 79.0879 174.551 79.2217L174.551 79.2217C174.764 79.2583 174.957 79.3138 175.177 79.3848C175.238 79.4044 175.302 79.4257 175.37 79.4481C175.541 79.5047 175.733 79.5685 175.944 79.6297C176.553 79.8065 177.349 79.9739 178.628 80.0439L178.666 80.046L178.705 80.0421C179.131 79.9995 180.243 79.7045 181.258 78.9262C182.298 78.1297 183.243 76.8192 183.243 74.7868V74.7528V74.7446H183.243C183.205 72.4491 181.959 70.7734 180.198 69.742C178.452 68.7196 176.19 68.3174 174.014 68.5113M185.329 62.0523C180.072 58.5889 170.846 57.3723 162.294 62.6051L162.293 62.6052C151.787 69.0274 149.046 81.6191 151.779 90.1993M174.014 68.5113L174.057 69.0094M174.014 68.5113C162.6 69.4984 157.182 82.8468 163.953 91.6422L163.953 91.6432C167.218 95.8617 173.952 97.8446 180.781 96.9433C187.642 96.0378 194.729 92.2125 198.751 84.6389L198.751 84.6384C203.272 76.1029 202.171 66.4425 196.697 59.4738C191.217 52.4967 181.4 48.2691 168.59 50.471M174.014 68.5113C174.013 68.5113 174.013 68.5114 174.012 68.5114L174.057 69.0094M174.057 69.0094C163.054 69.961 157.809 82.8411 164.349 91.3372C170.582 99.3915 190.441 99.2215 198.309 84.4044C207.165 67.684 193.983 46.6137 168.675 50.9637C157.366 52.9008 140.199 63.0282 133.795 86.4094M38.2495 61.5329C15.5979 61.6688 3.47166 52.3571 3.13104 52.0173C1.99294 51.0659 1.10483 47.4541 0.817871 46.2871C0.787048 46.1618 0.763168 46.0646 0.746658 46.002C0.303848 44.2688 1.83665 45.1864 1.83665 45.1864C4.80009 46.9536 12.2257 50.352 19.1745 50.488C27.7923 50.6579 45.1301 41.8559 46.9695 40.9044C46.9768 40.8946 46.983 40.8883 46.9894 40.8817C47.0696 40.7997 47.1989 40.6675 50.3734 33.0607C50.5784 32.927 50.7843 32.7921 50.9912 32.656L50.7164 32.2383L50.2548 32.046C50.1578 32.279 50.0633 32.5055 49.9713 32.7259C20.4363 51.9509 10.3444 45.949 1.2576 39.613M38.2495 61.5329L38.2378 61.033C38.2393 61.033 38.2408 61.0329 38.2423 61.0329M38.2495 61.5329L38.2465 61.0329C38.2451 61.0329 38.2437 61.0329 38.2423 61.0329M38.2495 61.5329C41.896 61.4477 45.3584 61.0549 48.5298 60.6951C58.0081 59.6198 64.8877 58.8393 66.317 67.4462C67.2452 73.1022 64.3983 79.8206 60.2258 85.9094H60.8306M38.2423 61.0329C26.9892 61.0999 18.3598 58.8207 12.5087 56.489C9.58235 55.3228 7.35052 54.1433 5.83293 53.2373C5.0741 52.7842 4.49435 52.3998 4.09616 52.1201C3.89696 51.9802 3.74397 51.867 3.63728 51.7851C3.51967 51.6948 3.47868 51.6578 3.48419 51.6633L3.46861 51.6477L3.45172 51.6336C3.22285 51.4423 2.96465 51.0573 2.70177 50.5079C2.44592 49.9732 2.21107 49.3381 2.00587 48.703C1.67641 47.6833 1.43578 46.7053 1.30612 46.1784C1.27412 46.0484 1.24887 45.9458 1.23073 45.8768M38.2423 61.0329C41.8512 60.9483 45.2813 60.5604 48.4464 60.2013L48.4981 60.1955C51.6323 59.8399 54.5249 59.5117 57.0307 59.5546C59.5488 59.5978 61.7547 60.015 63.4605 61.2201C65.1844 62.4379 66.3184 64.4024 66.8102 67.3642L66.8104 67.3652C67.7564 73.1294 64.9184 79.8662 60.8306 85.9094M1.23073 45.8768C1.23085 45.8773 1.23097 45.8778 1.23109 45.8782L0.746887 46.002L1.23012 45.8745C1.23032 45.8753 1.23053 45.876 1.23073 45.8768ZM1.23073 45.8768C1.17509 45.6587 1.16501 45.5256 1.16649 45.4512M1.16649 45.4512C1.14427 45.4471 1.12401 45.4446 1.10619 45.4439C1.09241 45.4433 1.08676 45.4436 1.08672 45.4432C1.08658 45.442 1.1427 45.4342 1.17444 45.3728C1.17526 45.3712 1.17522 45.3713 1.17468 45.3736C1.17313 45.38 1.16743 45.4036 1.16649 45.4512ZM1.16649 45.4512C1.23306 45.4636 1.31721 45.4909 1.4062 45.5293C1.43848 45.5432 1.46799 45.5571 1.49335 45.5696C1.51016 45.5779 1.52516 45.5856 1.53793 45.5924C1.55379 45.6007 1.5658 45.6074 1.57314 45.6116L1.57983 45.6154L1.64638 45.5044C1.57994 45.6155 1.58003 45.6155 1.58012 45.6156L1.58041 45.6157L1.58057 45.6158C4.57962 47.4043 12.0929 50.8495 19.1647 50.9879C21.3936 51.0318 24.1496 50.4975 27.0314 49.6769C29.9211 48.854 32.972 47.7328 35.8025 46.5798C41.4637 44.2736 46.2729 41.8277 47.1992 41.3485L47.3006 41.296L47.3691 41.2048C47.3103 41.2831 47.4286 41.1473 47.5041 41.0106C47.5766 40.8792 47.6954 40.6321 47.9203 40.1262C48.3743 39.1048 49.2876 36.9671 51.1779 32.4307L51.8062 30.9227L50.4415 31.8207C35.4144 41.7084 25.436 45.0889 18.1202 45.2515C10.838 45.4133 6.1158 42.3907 1.55014 39.2074M1.55014 39.2074C1.55247 39.2091 1.55489 39.2109 1.55716 39.2126L1.2576 39.613M1.55014 39.2074C1.54794 39.2059 1.54576 39.2043 1.54358 39.2028L1.2576 39.613M1.55014 39.2074C1.52805 39.191 1.50333 39.173 1.4763 39.1533C1.30591 39.0291 1.04739 38.8408 0.826447 38.5925C0.561905 38.2951 0.460663 38.0334 0.514603 37.8045M1.2576 39.613C1.23878 39.5989 1.21559 39.5821 1.1888 39.5626C0.827347 39.3004 -0.190643 38.5617 0.0313416 37.6758M0.0313416 37.6758L0.511871 37.814C0.512787 37.8109 0.513687 37.8077 0.514603 37.8045M0.0313416 37.6758C4.73196 21.3294 7.66133 16.3676 11.7829 14.0227M0.0313416 37.6758L0.516342 37.7974C0.515747 37.7998 0.515167 37.8021 0.514603 37.8045M0.514603 37.8045C2.86211 29.642 4.75809 24.3569 6.56914 20.8269C8.37352 17.31 10.0766 15.5688 12.0302 14.4573L12.0346 14.4548C18.2608 10.8283 28.8338 7.89318 38.0855 5.8363C46.6563 3.93079 54.026 2.7929 55.603 2.55912L55.6143 3.25456C55.6238 3.84817 55.6366 4.64671 55.6494 5.46645C55.675 7.10953 55.7004 8.82822 55.7004 9.16296V9.85377L56.3566 9.63793C59.4529 8.61951 81.6372 1.46972 102.441 0.724761C102.441 0.724758 102.441 0.724755 102.441 0.724752L102.484 0.723283C120.117 0.113108 144.139 -0.71812 178.117 20.122C178.26 20.2128 178.408 20.3068 178.561 20.4042C185.52 24.8343 203.346 36.1806 211.845 57.1667L211.847 57.1704C213.694 61.6266 216.081 71.7074 213.698 81.1199C212.589 85.4108 210.707 89.4672 208.153 93.088L208.152 93.0901C202.313 101.459 192.504 107.028 181.915 107.967C181.915 107.967 181.915 107.967 181.915 107.967L181.959 108.465C166.835 109.791 155.356 103.028 151.303 90.3516C148.51 81.5836 151.303 68.7376 162.033 62.1786L11.7829 14.0227M11.7829 14.0227C23.6842 7.09089 51.0764 2.73495 55.295 2.0996C55.3138 2.21687 55.3729 2.31479 55.4385 2.3802L11.7829 14.0227ZM151.779 90.1993C151.779 90.1995 151.779 90.1997 151.779 90.1999L151.303 90.3515L151.779 90.1993ZM60.8306 85.9094C60.7175 86.0766 60.6035 86.2433 60.4885 86.4094H76.4335M60.8306 85.9094H76.1396M76.1396 85.9094C77.0033 84.3447 77.7905 82.6892 78.5965 80.994C78.9898 80.1668 79.3876 79.3302 79.801 78.4902C81.0988 75.8524 82.5361 73.2127 84.4236 70.8707C88.2263 66.1522 93.813 62.6981 103.615 62.6981C108.093 62.6981 111.43 63.7967 113.871 65.58C116.311 67.3627 117.815 69.799 118.681 72.403C120.29 77.2388 119.722 82.7118 118.832 85.9094M76.1396 85.9094H76.4335V86.4094M76.1396 85.9094C76.0925 85.9948 76.0451 86.0799 75.9975 86.1647L76.4335 86.4094M118.832 85.9094H133.414M118.832 85.9094C118.784 86.0829 118.735 86.2498 118.685 86.4094H133.795M118.832 85.9094H118.313C120.146 79.5248 120.725 63.1981 103.615 63.1981C87.6125 63.1981 83.1856 72.5077 79.0572 81.1898C78.2032 82.9859 77.3619 84.7551 76.4335 86.4094M133.414 85.9094C139.952 62.5891 157.164 52.4284 168.59 50.471M133.414 85.9094H133.795V86.4094M133.414 85.9094C133.38 86.0317 133.346 86.1544 133.313 86.2774L133.795 86.4094M168.59 50.471L168.675 50.9632L168.59 50.4709C168.59 50.4709 168.59 50.4709 168.59 50.471ZM55.8262 2.2686L55.599 2.27234C55.599 2.27236 55.599 2.27238 55.599 2.27241L55.8262 2.2686ZM22.4186 18.9049L22.3925 18.9071L22.3663 18.9066C21.2182 18.8835 20.0775 19.0939 19.0135 19.5249C17.9496 19.9559 16.9849 20.5984 16.1781 21.4133C15.3712 22.2282 14.7392 23.1984 14.3204 24.2647C13.9016 25.331 13.7048 26.4712 13.742 27.6158C13.7791 28.7604 14.0495 29.8855 14.5365 30.9226C15.0236 31.9597 15.7172 32.8871 16.5752 33.6482C17.4332 34.4093 18.4376 34.9883 19.5273 35.3497C20.6169 35.7111 21.7689 35.8474 22.9131 35.7503L22.9392 35.7481L22.9654 35.7486C24.1135 35.7717 25.2543 35.5613 26.3182 35.1303C27.3821 34.6993 28.3468 34.0568 29.1537 33.2419C29.9605 32.427 30.5925 31.4568 31.0113 30.3905C31.4301 29.3242 31.6269 28.184 31.5898 27.0394C31.5526 25.8948 31.2823 24.7697 30.7952 23.7326C30.3082 22.6955 29.6145 21.7681 28.7565 21.007C27.8985 20.2459 26.8941 19.6669 25.8045 19.3055C24.7148 18.9441 23.5628 18.8078 22.4186 18.9049ZM13.6331 37.1604C11.0511 34.7565 9.53181 31.4275 9.40977 27.9057C9.28772 24.3838 10.573 20.958 12.9824 18.3819C15.3918 15.8058 18.728 14.2905 22.2569 14.1687C25.7858 14.047 29.2189 15.3289 31.8008 17.7327C34.3828 20.1366 35.9021 23.4656 36.0242 26.9874C36.1462 30.5093 34.861 33.9351 32.4515 36.5112C30.0421 39.0873 26.7059 40.6026 23.177 40.7244C19.6481 40.8461 16.215 39.5642 13.6331 37.1604ZM20.9117 22.3926C23.6732 22.3926 25.3459 23.8221 25.3459 25.5434C25.3459 27.2647 23.6732 28.6942 20.9117 28.6942C18.1501 28.6942 16.4774 27.2647 16.4774 25.5434C16.4774 23.8221 18.1501 22.3926 20.9117 22.3926Z" stroke="black"/>
</svg>
