<svg xmlns="http://www.w3.org/2000/svg" width="83" height="60" viewBox="0 0 83 60" fill="none">
  <g filter="url(#filter0_d_576_4648)">
    <path d="M23.3008 12.5175L23.3107 13.1445C23.3195 13.7132 23.3282 14.3019 23.3282 14.414V15.1053L23.9848 14.8889C25.0478 14.5384 32.6415 12.0868 39.7482 11.8317C39.7483 11.8317 39.7484 11.8317 39.7485 11.8317L39.7691 11.831C45.8079 11.6215 53.9934 11.3376 65.5978 18.4705C65.6442 18.5002 65.6922 18.5308 65.7419 18.5625C68.1305 20.0867 74.1872 23.9514 77.0717 31.0896L77.0732 31.0934L77.0732 31.0934C77.6914 32.5883 78.4924 35.9897 77.6953 39.1459C77.3236 40.5868 76.6931 41.9492 75.8373 43.1654L75.8358 43.1675C73.885 45.9703 70.6001 47.8425 67.0498 48.1582C64.5322 48.3792 62.3528 47.923 60.6468 46.9134C58.9452 45.9065 57.6852 44.3324 57.0234 42.2585C56.122 39.4221 57.0317 35.2464 60.4996 33.1216L60.4998 33.1215C63.3315 31.3849 66.368 31.7998 68.0719 32.9248C69.57 33.9164 70.4001 35.4383 70.379 37.0952L70.379 37.0961C70.3474 40.025 67.8156 41.5937 66.0157 41.5937C65.4391 41.5937 64.8743 41.4977 64.3306 41.3058L64.3143 41.3001L64.2976 41.2955C63.6221 41.1084 63.1056 40.6796 63.1056 40.0312C63.1056 39.5159 63.3368 39.239 63.6137 39.0772C63.9237 38.896 64.2956 38.8615 64.489 38.895L64.4894 38.8951C64.54 38.9038 64.5894 38.9175 64.6596 38.9402C64.6763 38.9455 64.6957 38.952 64.7171 38.9591C64.7772 38.9791 64.8537 39.0044 64.9326 39.0274C65.1674 39.0958 65.466 39.1574 65.9298 39.1828L65.9684 39.1849L66.0069 39.1811C66.2104 39.1607 66.6517 39.0381 67.0527 38.73C67.4774 38.4037 67.8634 37.8614 67.8634 37.0429V37.0312V37.0231L67.8633 37.0231C67.8482 36.0974 67.3401 35.4236 66.6541 35.0209C65.9835 34.6273 65.134 34.481 64.3312 34.5527C60.1339 34.917 58.1601 39.8271 60.6387 43.0545L60.6395 43.0556C61.8597 44.6358 64.3146 45.3276 66.7317 45.0079C69.18 44.684 71.7197 43.3131 73.1607 40.5934L73.1609 40.593C74.7768 37.5351 74.385 34.065 72.4224 31.5607C70.4531 29.0478 66.949 27.5584 62.4389 28.3353C58.431 29.0234 52.4804 32.5486 50.1452 40.5508H45.7938C46.0466 39.3814 46.1494 37.6667 45.6353 36.1178C45.3207 35.1701 44.7687 34.2672 43.8629 33.604C42.956 32.94 41.7363 32.5469 40.1407 32.5469C36.6723 32.5469 34.6549 33.7803 33.2823 35.4874C32.6098 36.3238 32.1027 37.2601 31.6532 38.1758C31.5065 38.4746 31.3674 38.7678 31.231 39.0553C30.9854 39.5732 30.7487 40.0723 30.4927 40.5508H26.0261C27.2694 38.574 28.1207 36.3764 27.8021 34.4309L27.802 34.43C27.623 33.3499 27.2 32.5821 26.5157 32.0975C25.8491 31.6255 25.0108 31.4782 24.1195 31.4629C23.2359 31.4478 22.2229 31.563 21.1565 31.6842L21.1235 31.688C20.0338 31.8119 18.8687 31.9438 17.6451 31.9727C13.8215 31.9951 10.8956 31.2189 8.91846 30.4292C7.92902 30.034 7.17679 29.6352 6.66852 29.3311C6.41434 29.179 6.22169 29.0508 6.0914 28.9591C6.00536 28.8985 5.95544 28.8601 5.93309 28.8429C5.91733 28.8307 5.91528 28.8292 5.92396 28.8378L5.90839 28.8223L5.89152 28.8081C5.86922 28.7894 5.80504 28.7106 5.71877 28.5299C5.63953 28.364 5.56387 28.1602 5.49551 27.9481C5.45048 27.8084 5.4107 27.6721 5.37631 27.5472C6.63223 28.2025 8.9043 29.1213 11.0801 29.1639M23.3008 12.5175L5.22588 24.514C5.22352 24.5123 5.22116 24.5105 5.2188 24.5088M23.3008 12.5175C22.3676 12.6637 20.1663 13.0298 17.6674 13.5866C14.4821 14.2964 10.8916 15.3 8.79905 16.5216L8.79464 16.5242C8.19294 16.8673 7.646 17.4116 7.04526 18.5852C6.4418 19.7642 5.80142 21.5438 5.00288 24.3203M23.3008 12.5175L5.00288 24.3203M11.0801 29.1639L11.0899 28.664L11.08 29.1639C11.0801 29.1639 11.0801 29.1639 11.0801 29.1639ZM11.0801 29.1639C11.896 29.1801 12.8814 28.9853 13.8831 28.6993C14.8929 28.4111 15.9545 28.0198 16.9347 27.6196C18.8953 26.8191 20.5596 25.9707 20.8826 25.8032L20.9839 25.7507L21.0524 25.6594C20.9771 25.7599 21.0881 25.6186 21.1237 25.5539C21.1564 25.4945 21.2025 25.397 21.2794 25.2237C21.4374 24.8675 21.753 24.127 22.4032 22.563L23.0306 21.0539L21.6662 21.9537C16.515 25.3509 13.1449 26.4769 10.7199 26.5309C8.3284 26.5841 6.77916 25.599 5.2188 24.5088M5.2188 24.5088C5.20902 24.5015 5.19922 24.4943 5.18942 24.4871C5.13142 24.4444 5.07378 24.4021 5.02297 24.3448C5.01451 24.3353 5.00793 24.3271 5.00288 24.3203M5.2188 24.5088L5.00288 24.3203M4.99358 27.0551L4.75009 27.1172L4.99416 27.0549L4.99358 27.0551ZM12.2339 18.0997L12.2077 18.102L12.1814 18.1014C11.831 18.0944 11.4828 18.1587 11.1581 18.2906C10.8333 18.4224 10.5388 18.619 10.2925 18.8684C10.0462 19.1177 9.85325 19.4146 9.72539 19.7409C9.59751 20.0673 9.53742 20.4162 9.54877 20.7665C9.56011 21.1168 9.64265 21.4611 9.79137 21.7785C9.94008 22.0959 10.1518 22.3797 10.4138 22.6125C10.6757 22.8454 10.9823 23.0226 11.3149 23.1331C11.6475 23.2437 11.9991 23.2854 12.3483 23.2557L12.3745 23.2535L12.4008 23.254C12.7512 23.261 13.0994 23.1967 13.4241 23.0648C13.7489 22.933 14.0434 22.7364 14.2897 22.487L14.6454 22.8384L14.2897 22.487C14.536 22.2377 14.7289 21.9408 14.8568 21.6145L15.3224 21.7969L14.8568 21.6145C14.9847 21.2882 15.0448 20.9392 15.0334 20.5889C15.0221 20.2386 14.9396 19.8943 14.7908 19.5769C14.6421 19.2595 14.4304 18.9758 14.1684 18.7429C13.9065 18.51 13.5999 18.3329 13.2673 18.2223C12.9347 18.1117 12.5831 18.07 12.2339 18.0997ZM8.95959 24.3077C8.00773 23.4195 7.44772 22.1895 7.40273 20.8883C7.35774 19.5872 7.83147 18.3215 8.7197 17.3696C9.60794 16.4178 10.8379 15.8578 12.1391 15.8128C13.4402 15.7678 14.7059 16.2415 15.6578 17.1298C16.6096 18.018 17.1696 19.248 17.2146 20.5491C17.2596 21.8502 16.7859 23.116 15.8976 24.0678C15.0094 25.0197 13.7794 25.5797 12.4783 25.6247C11.1772 25.6697 9.91144 25.1959 8.95959 24.3077ZM11.6876 18.6484C12.7299 18.6484 13.5411 19.2104 13.5411 20.0625C13.5411 20.9145 12.7299 21.4765 11.6876 21.4765C10.6453 21.4765 9.83407 20.9145 9.83407 20.0625C9.83407 19.2104 10.6453 18.6484 11.6876 18.6484Z" fill="url(#paint0_linear_576_4648)" stroke="#389B87"/>
  </g>
  <defs>
    <filter id="filter0_d_576_4648" x="0" y="0" width="83" height="68" filterUnits="userSpaceOnUse" color-interpolation-filters="sRGB">
      <feFlood flood-opacity="0" result="BackgroundImageFix"/>
      <feColorMatrix in="SourceAlpha" type="matrix" values="0 0 0 0 0 0 0 0 0 0 0 0 0 0 0 0 0 0 127 0" result="hardAlpha"/>
      <feOffset dy="4"/>
      <feGaussianBlur stdDeviation="2"/>
      <feComposite in2="hardAlpha" operator="out"/>
      <feColorMatrix type="matrix" values="0 0 0 0 0 0 0 0 0 0 0 0 0 0 0 0 0 0 0.25 0"/>
      <feBlend mode="normal" in2="BackgroundImageFix" result="effect1_dropShadow_576_4648"/>
      <feBlend mode="normal" in="SourceGraphic" in2="effect1_dropShadow_576_4648" result="shape"/>
    </filter>
    <linearGradient id="paint0_linear_576_4648" x1="4.88255" y1="20.7352" x2="78.1178" y2="40.5881" gradientUnits="userSpaceOnUse">
      <stop stop-color="#FF0000"/>
      <stop offset="0.27" stop-color="#FF9900"/>
      <stop offset="0.43" stop-color="#FFE600"/>
      <stop offset="0.55" stop-color="#24FF00"/>
      <stop offset="0.705" stop-color="#2400FF"/>
      <stop offset="0.8101" stop-color="#7800FF"/>
      <stop offset="1" stop-color="#CC00FF"/>
    </linearGradient>
  </defs>
</svg>