<svg xmlns="http://www.w3.org/2000/svg" width="99" height="50" viewBox="0 0 99 50" fill="none">
  <path d="M25.7332 1.04098C25.7332 1.04098 25.7801 3.90036 25.7801 4.21286C27.2019 3.74411 37.4051 0.447231 46.9832 0.103481C55.0926 -0.177769 66.1707 -0.568393 81.8269 9.05661C84.8582 10.9941 93.3738 16.2597 97.3894 26.1972C98.2488 28.2754 99.3582 32.9629 98.2488 37.3535C97.7332 39.3535 96.8582 41.2441 95.6707 42.9316C92.9519 46.8379 88.3894 49.4316 83.4676 49.8691C76.5301 50.4785 71.2644 47.3691 69.4051 41.541C68.1238 37.5097 69.4051 31.6035 74.3269 28.5879C78.3269 26.1347 82.6551 26.6972 85.1394 28.3379C87.3113 29.7754 88.5457 32.0097 88.5144 34.4629C88.4676 38.8066 84.7176 41.1191 82.0301 41.1191C81.1863 41.1191 80.3582 40.9785 79.5613 40.6972C78.5457 40.416 77.4832 39.6816 77.4832 38.3691C77.4832 36.4785 79.2957 36.0566 80.1082 36.1972C80.5613 36.2754 80.8113 36.5097 81.9519 36.5722C82.2644 36.541 83.8269 36.0879 83.8269 34.3847V34.3691C83.7957 32.4472 81.7644 31.5566 79.8426 31.7285C74.7957 32.166 72.3894 38.0879 75.3894 41.9941C78.2488 45.6972 87.3582 45.6191 90.9676 38.8066C95.0301 31.1191 88.9832 21.4316 77.3738 23.4316C72.1863 24.3222 64.3113 28.9785 61.3738 39.7285H54.2019C55.0926 36.9785 55.5926 29.0566 47.5301 29.0566C38.6707 29.0566 37.5457 35.291 35.0613 39.7285H27.4676C29.4676 36.8691 30.8582 33.6816 30.4207 31.0097C29.5457 25.7285 24.2176 28.1347 17.5457 28.291C7.15506 28.3535 1.59257 24.0722 1.43632 23.916C0.858191 23.4316 0.420691 21.4472 0.342566 21.1504C0.139441 20.3535 0.842558 20.7754 0.842558 20.7754C2.20193 21.5879 5.60819 23.1504 8.79569 23.2129C12.7488 23.291 20.7019 19.2441 21.5457 18.8066C21.5926 18.7441 21.5301 18.9941 23.2644 14.8222C9.45194 23.9316 4.78007 21.1504 0.576941 18.2129C0.451941 18.1191 -0.0949402 17.7597 0.0144348 17.3222C2.17068 9.80661 3.51443 7.52536 5.40506 6.44723C11.1863 3.07223 24.9363 1.02536 25.5926 0.931607C25.5769 0.915982 25.7332 0.884731 25.7332 1.04098ZM4.54568 12.8222C4.59956 14.3804 5.27019 15.8533 6.41006 16.917C7.54993 17.9807 9.06567 18.548 10.6238 18.4941C12.182 18.4402 13.6549 17.7696 14.7186 16.6297C15.7822 15.4899 16.3496 13.9741 16.2957 12.416C16.2418 10.8578 15.5712 9.38491 14.4313 8.32122C13.2914 7.25754 11.7757 6.69023 10.2176 6.74411C8.65941 6.79798 7.18649 7.46862 6.1228 8.60848C5.05912 9.74835 4.49181 11.2641 4.54568 12.8222ZM10.2644 8.46286C10.8202 8.41557 11.3798 8.48193 11.9092 8.65791C12.4385 8.83388 12.9265 9.11578 13.3433 9.48642C13.7602 9.85707 14.0972 10.3087 14.3339 10.8138C14.5706 11.3189 14.702 11.8669 14.72 12.4244C14.7381 12.982 14.6424 13.5373 14.4389 14.0567C14.2354 14.576 13.9283 15.0485 13.5363 15.4454C13.1443 15.8422 12.6756 16.1551 12.1587 16.3649C11.6419 16.5748 11.0878 16.6772 10.5301 16.666C9.97425 16.7133 9.41465 16.6469 8.88532 16.4709C8.356 16.295 7.86803 16.0131 7.45117 15.6424C7.0343 15.2718 6.69727 14.8201 6.46059 14.315C6.2239 13.8099 6.09253 13.2619 6.07448 12.7044C6.05643 12.1469 6.15207 11.5915 6.35558 11.0722C6.55909 10.5528 6.8662 10.0803 7.25821 9.68346C7.65022 9.28662 8.11892 8.97375 8.63576 8.7639C9.15259 8.55405 9.70674 8.45163 10.2644 8.46286ZM9.59256 12.9629C11.9988 12.9629 11.9988 10.5254 9.59256 10.5254C7.18631 10.5254 7.18631 12.9629 9.59256 12.9629Z" fill="#757575"/>
</svg>