<svg width="1920" height="1614" viewBox="0 0 1920 1614" fill="none" xmlns="http://www.w3.org/2000/svg">
<g clip-path="url(#clip0_160_19716)">
<g filter="url(#filter0_df_160_19716)">
<path d="M1625.24 1278.39L1639.98 1513.4H1560.74C1562.77 1513.4 1553.85 1278.39 1553.85 1278.39L1596.92 1239.73L1625.24 1278.39Z" fill="#277DA1"/>
<path d="M1553.93 1278.39L1596.99 1239.73L1625.24 1278.39L1596.19 1269.94C1594.47 1306.2 1596.19 1464.64 1596.8 1494.39C1595.69 1461.18 1586.96 1267.37 1586.96 1267.37L1553.93 1278.39Z" fill="#587C8C"/>
<path opacity="0.4" d="M1596.99 1499.2C1596.99 1499.54 1596.99 1497.81 1596.99 1494.43C1596.96 1497.26 1597.03 1498.95 1596.99 1499.2Z" fill="#277DA1"/>
<path d="M1596.99 1239.73C1596.99 1239.73 1590.37 1268 1591.14 1268.55C1591.9 1269.1 1596.08 1513.4 1596.99 1513.4H1560.82L1553.93 1278.39L1596.99 1239.73Z" fill="#263238"/>
<path opacity="0.2" d="M1592.82 1334.84L1631.1 1370.46L1633.78 1413.31L1592.82 1371.05V1334.84Z" fill="#277DA1"/>
<path opacity="0.2" d="M1592.09 1304.55L1629.22 1340.55L1630.64 1363.19L1592.74 1329.94L1592.09 1304.55Z" fill="#277DA1"/>
<path d="M1534.1 1376.97L1542.67 1513.4H1496.74C1497.92 1513.4 1492.91 1376.97 1492.91 1376.97L1517.91 1354.53L1534.1 1376.97Z" fill="#277DA1"/>
<path d="M1492.64 1376.97L1517.64 1354.53L1534.1 1376.97L1517.22 1372.07C1516.22 1393.19 1517.22 1485.13 1517.6 1502.37C1516.91 1483.1 1511.9 1370.55 1511.9 1370.55L1492.64 1376.97Z" fill="#587C8C"/>
<path opacity="0.4" d="M1517.64 1505.16C1517.64 1505.16 1517.64 1504.36 1517.64 1502.37C1517.64 1504.02 1517.68 1504.99 1517.64 1505.16Z" fill="#277DA1"/>
<path d="M1517.64 1354.53C1517.64 1354.53 1513.81 1370.93 1514.23 1371.22C1514.65 1371.52 1517.14 1513.4 1517.68 1513.4H1496.66L1492.83 1376.97L1517.64 1354.53Z" fill="#263238"/>
<path opacity="0.2" d="M1515.23 1409.76L1537.47 1430.42L1539 1455.3L1515.23 1430.75V1409.76Z" fill="#277DA1"/>
<path opacity="0.2" d="M1514.81 1392.14L1536.36 1413.05L1537.2 1426.19L1515.19 1406.88L1514.81 1392.14Z" fill="#277DA1"/>
<path d="M1649.78 1247.05C1655.58 1247.37 1661.06 1250.05 1665.17 1254.56C1669.28 1259.08 1671.74 1265.12 1672.06 1271.51H1675.01C1675.01 1271.51 1674.17 1249.16 1697.29 1247.98V1244.43C1695.45 1244.43 1678.15 1243.58 1675.77 1220.64H1672.83C1672.83 1220.64 1674.82 1241.3 1649.86 1244.55L1649.78 1247.05Z" fill="#E6E6E6"/>
<path d="M212.712 1420.74C218.509 1421.05 223.995 1423.73 228.109 1428.25C232.224 1432.77 234.676 1438.81 234.991 1445.2H237.938C237.938 1445.2 237.058 1422.81 260.179 1421.63V1418.12C258.342 1418.12 241.039 1417.23 238.627 1394.33H235.68C235.68 1394.33 237.67 1414.99 212.712 1418.21V1420.74Z" fill="#E6E6E6"/>
<path d="M461.532 1393.02C467.329 1393.34 472.815 1396.01 476.929 1400.53C481.044 1405.05 483.496 1411.09 483.811 1417.49H486.758C486.758 1417.49 485.878 1395.14 508.999 1393.95V1390.4C507.161 1390.4 489.859 1389.52 487.447 1366.62H484.5C484.5 1366.62 486.49 1387.28 461.532 1390.53V1393.02Z" fill="#E6E6E6"/>
<path d="M129.339 657.845C135.134 658.168 140.614 660.846 144.728 665.362C148.841 669.879 151.295 675.915 151.618 682.308H154.527C154.527 682.308 153.647 659.957 176.806 658.774V655.225C174.969 655.225 157.666 654.38 155.255 631.437H152.346C152.346 631.437 154.336 652.098 129.378 655.352L129.339 657.845Z" fill="#E6E6E6"/>
<path d="M1534.6 154.713C1540.39 155.028 1545.88 157.703 1550 162.221C1554.11 166.739 1556.56 172.78 1556.88 179.177H1559.82C1559.82 179.177 1558.94 156.826 1582.06 155.643V152.094C1580.23 152.094 1562.92 151.207 1560.51 128.306H1557.57C1557.57 128.306 1559.56 148.967 1534.6 152.221V154.713Z" fill="#E6E6E6"/>
<path d="M322.385 80.1387C328.179 80.4625 333.66 83.1402 337.773 87.6566C341.886 92.1729 344.34 98.2087 344.664 104.602H347.573C347.573 104.602 346.731 82.2513 369.852 81.0683V77.5191C368.053 77.5191 350.712 76.6741 348.338 53.7314H345.391C345.391 53.7314 347.382 74.3925 322.423 77.6459L322.385 80.1387Z" fill="#E6E6E6"/>
<path d="M1177.94 1420.74C1183.74 1421.05 1189.23 1423.73 1193.34 1428.25C1197.46 1432.77 1199.91 1438.81 1200.22 1445.2H1203.17C1203.17 1445.2 1202.29 1422.81 1225.41 1421.63V1418.12C1223.57 1418.12 1206.27 1417.23 1203.86 1394.33H1200.91C1200.91 1394.33 1202.9 1414.99 1177.94 1418.21V1420.74Z" fill="#E6E6E6"/>
<path d="M1769.6 1338.65C1771.59 1338.78 1773.47 1339.71 1774.88 1341.27C1776.29 1342.82 1777.14 1344.9 1777.25 1347.1H1778.36C1778.31 1345.97 1778.47 1344.84 1778.83 1343.79C1779.2 1342.74 1779.76 1341.78 1780.48 1340.99C1781.21 1340.19 1782.07 1339.57 1783.03 1339.16C1783.98 1338.76 1785 1338.58 1786.02 1338.65V1337.42C1784.02 1337.42 1782.1 1336.56 1780.67 1335.02C1779.24 1333.48 1778.41 1331.39 1778.36 1329.18H1777.33C1777.33 1329.18 1778.02 1336.36 1769.45 1337.63L1769.6 1338.65Z" fill="#E6E6E6"/>
<path d="M1429.48 1413.64C1431.47 1413.78 1433.35 1414.71 1434.76 1416.26C1436.17 1417.82 1437.02 1419.9 1437.14 1422.09H1438.17C1438.15 1420.99 1438.33 1419.9 1438.71 1418.87C1439.09 1417.85 1439.66 1416.93 1440.38 1416.17C1441.1 1415.4 1441.95 1414.81 1442.89 1414.42C1443.83 1414.04 1444.83 1413.88 1445.83 1413.94V1412.71C1443.8 1412.71 1441.85 1411.82 1440.41 1410.24C1438.98 1408.66 1438.17 1406.51 1438.17 1404.26H1437.14C1437.14 1404.26 1437.83 1411.41 1429.21 1412.71L1429.48 1413.64Z" fill="#E6E6E6"/>
<path d="M309.905 1379.59C311.9 1379.71 313.784 1380.64 315.196 1382.2C316.609 1383.76 317.451 1385.84 317.561 1388.04H318.556C318.539 1386.94 318.727 1385.84 319.11 1384.83C319.492 1383.81 320.06 1382.89 320.778 1382.12C321.496 1381.36 322.349 1380.77 323.284 1380.38C324.219 1379.99 325.216 1379.83 326.212 1379.88V1378.66C324.215 1378.6 322.317 1377.69 320.922 1376.11C319.527 1374.53 318.747 1372.41 318.748 1370.21H317.752C317.752 1370.21 318.441 1377.39 309.828 1378.66L309.905 1379.59Z" fill="#E6E6E6"/>
<path d="M251.489 627.171C253.481 627.301 255.361 628.234 256.772 629.791C258.183 631.348 259.027 633.423 259.145 635.621H260.179C260.156 634.516 260.341 633.418 260.721 632.396C261.101 631.373 261.668 630.448 262.386 629.679C263.105 628.909 263.96 628.312 264.897 627.924C265.835 627.536 266.835 627.366 267.835 627.424V626.199C265.871 626.146 264 625.26 262.61 623.727C261.221 622.193 260.419 620.128 260.37 617.96H259.337C259.337 617.96 260.026 625.143 251.413 626.41L251.489 627.171Z" fill="#E6E6E6"/>
<path d="M1245.09 1478.08C1247.08 1478.21 1248.96 1479.14 1250.37 1480.7C1251.78 1482.25 1252.62 1484.33 1252.74 1486.53H1253.93C1253.91 1485.42 1254.09 1484.33 1254.47 1483.31C1254.85 1482.29 1255.42 1481.36 1256.14 1480.6C1256.86 1479.83 1257.71 1479.24 1258.65 1478.85C1259.59 1478.47 1260.59 1478.31 1261.58 1478.37V1477.15C1259.62 1477.09 1257.75 1476.21 1256.36 1474.67C1254.97 1473.14 1254.17 1471.08 1254.12 1468.91H1253.09C1253.09 1468.91 1253.78 1476.05 1245.16 1477.36L1245.09 1478.08Z" fill="#E6E6E6"/>
<path d="M1722.74 1401.77L1712.48 1349.76L1684.73 1364C1684.73 1364 1624.98 1510.57 1623.75 1512.55C1622.53 1514.54 1667.81 1512.55 1667.81 1512.55C1667.81 1512.55 1726.38 1399.06 1722.74 1401.77Z" fill="#407BFF"/>
<path d="M1722.74 1401.77L1712.48 1349.76L1684.73 1364C1684.73 1364 1624.98 1510.57 1623.75 1512.55C1622.53 1514.54 1667.81 1512.55 1667.81 1512.55C1667.81 1512.55 1726.38 1399.06 1722.74 1401.77Z" fill="#277DA1"/>
<path d="M1635.31 1513.02C1637.11 1513.02 1695.18 1377.52 1697.13 1372.91L1696.9 1372.66L1684.73 1363.78L1712.48 1349.76V1350.39L1712.75 1350.01L1712.48 1350.56L1722.59 1401.77L1700.23 1376.42L1640.94 1512.81L1635.31 1513.02Z" fill="#587C8C"/>
<path opacity="0.3" d="M1688.25 1404.52C1687.3 1404.52 1697.21 1454.92 1697.21 1454.92L1682.66 1483.61L1674.13 1437.13L1688.25 1404.52Z" fill="#277DA1"/>
<path opacity="0.3" d="M1670.45 1442.25L1679.3 1490.03L1674.86 1498.7L1666.51 1452.22L1670.45 1442.25Z" fill="#277DA1"/>
<path d="M1712.48 1349.76L1700.39 1376.67C1700.39 1376.67 1638.57 1512.81 1638.57 1513.1C1638.57 1513.4 1622.3 1511.88 1623.75 1512.43C1625.21 1512.98 1684.73 1364 1684.73 1364L1712.48 1349.76Z" fill="#263238"/>
<path d="M416.324 1359.05L430.908 1516.61H351.669C353.697 1516.61 344.778 1359.05 344.778 1359.05L387.843 1333.15L416.324 1359.05Z" fill="#277DA1"/>
<path d="M344.931 1359.05L387.996 1333.15L416.323 1359.05L387.269 1353.43C385.546 1377.73 387.269 1483.95 387.881 1503.89C386.695 1481.62 378.082 1351.78 378.082 1351.78L344.931 1359.05Z" fill="#587C8C"/>
<path opacity="0.4" d="M387.998 1507.1C387.998 1507.31 387.998 1506.17 387.998 1503.89C387.966 1505.79 388.031 1506.93 387.998 1507.1Z" fill="#277DA1"/>
<path d="M387.997 1333.15C387.997 1333.15 381.374 1352.08 382.14 1352.46C382.905 1352.84 387.078 1516.61 387.997 1516.61H351.822L344.932 1359.05L387.997 1333.15Z" fill="#263238"/>
<path opacity="0.2" d="M383.823 1396.91L422.103 1420.78L424.783 1449.51L383.823 1421.21V1396.91Z" fill="#277DA1"/>
<path opacity="0.2" d="M383.097 1376.63L420.228 1400.76L421.645 1415.92L383.748 1393.66L383.097 1376.63Z" fill="#277DA1"/>
<path d="M325.102 1432.36L333.639 1516.61H287.703C288.89 1516.61 283.684 1432.36 283.684 1432.36L308.68 1418.54L325.102 1432.36Z" fill="#277DA1"/>
<path d="M283.644 1432.36L308.641 1418.54L325.102 1432.36L308.22 1429.36C307.225 1442.37 308.22 1499.16 308.603 1509.64C307.914 1497.72 302.899 1428.26 302.899 1428.26L283.644 1432.36Z" fill="#587C8C"/>
<path opacity="0.4" d="M308.643 1511.54C308.643 1511.54 308.643 1511.03 308.643 1509.81C308.674 1510.38 308.674 1510.96 308.643 1511.54Z" fill="#277DA1"/>
<path d="M308.642 1418.54C307.291 1421.89 306.153 1425.33 305.235 1428.85C305.694 1428.85 308.144 1516.61 308.68 1516.61H287.664L283.645 1432.36L308.642 1418.54Z" fill="#263238"/>
<path opacity="0.2" d="M306.23 1452.64L328.471 1465.4L330.002 1480.74L306.23 1465.61V1452.64Z" fill="#277DA1"/>
<path opacity="0.2" d="M305.809 1441.74L327.361 1454.67L328.203 1462.78L306.192 1450.87L305.809 1441.74Z" fill="#277DA1"/>
<path d="M6 1513.4H1920V1514.45H6V1513.4Z" fill="#263238"/>
<path d="M1660.73 1573.69H1722.21V1574.75H1660.73V1573.69Z" fill="#263238"/>
<path d="M1062.99 1562.24H1267.9V1563.3H1062.99V1562.24Z" fill="#263238"/>
<path d="M1518.14 1612.94H1656.9V1614H1518.14V1612.94Z" fill="#263238"/>
<path d="M306.344 1561.69H471.675V1562.75H306.344V1561.69Z" fill="#263238"/>
<path d="M248.007 1561.69H272.238V1562.75H248.007V1561.69Z" fill="#263238"/>
<path d="M503.257 1588.02H709.548V1589.07H503.257V1588.02Z" fill="#263238"/>
<path d="M401.241 642.931C404.505 640.29 408.391 638.746 412.431 638.483C416.472 638.221 420.495 639.252 424.017 641.453C429.003 631.356 437.32 623.765 447.242 620.256C457.164 616.747 467.929 617.59 477.303 622.608C479.719 611.413 485.513 601.459 493.734 594.38C501.955 587.302 512.113 583.521 522.538 583.658C532.964 583.796 543.037 587.844 551.102 595.138C559.167 602.431 564.744 612.536 566.916 623.791C567.199 627.431 568.392 630.912 570.362 633.847C574.19 638.072 580.314 636.636 585.674 636.171C594.072 635.689 602.377 638.31 609.275 643.62C616.173 648.931 621.271 656.628 623.762 665.494L393.431 664.606C392.554 660.546 392.833 656.285 394.23 652.406C395.628 648.526 398.076 645.218 401.241 642.931Z" fill="#E6E6E6"/>
<path d="M115.788 1153.79C119.056 1151.16 122.941 1149.63 126.979 1149.36C131.017 1149.1 135.039 1150.13 138.564 1152.32C143.55 1142.22 151.87 1134.63 161.793 1131.13C171.717 1127.63 182.482 1128.48 191.85 1133.51C194.266 1122.32 200.06 1112.36 208.281 1105.29C216.502 1098.21 226.66 1094.43 237.085 1094.56C247.511 1094.7 257.584 1098.75 265.649 1106.04C273.714 1113.34 279.291 1123.44 281.463 1134.7C281.71 1138.33 282.892 1141.8 284.87 1144.71C288.698 1148.94 294.823 1147.5 300.182 1147.08C308.614 1146.54 316.967 1149.13 323.905 1154.45C330.844 1159.76 335.969 1167.49 338.462 1176.4L108.093 1175.47C107.204 1171.42 107.466 1167.17 108.842 1163.29C110.219 1159.41 112.644 1156.1 115.788 1153.79Z" fill="#26414D"/>
<path d="M1608.55 333.606C1611.81 330.973 1615.69 329.434 1619.73 329.172C1623.76 328.909 1627.77 329.935 1631.29 332.127C1636.28 322.03 1644.6 314.442 1654.52 310.94C1664.45 307.438 1675.21 308.293 1684.58 313.325C1687.22 302.261 1693.07 292.457 1701.25 285.42C1709.42 278.383 1719.46 274.501 1729.83 274.369C1740.18 274.773 1750.13 278.919 1758.15 286.171C1766.16 293.422 1771.8 303.378 1774.19 314.508C1774.47 318.136 1775.66 321.606 1777.64 324.522C1781.47 328.747 1787.59 327.31 1792.95 326.846C1801.41 326.323 1809.79 328.955 1816.73 334.319C1823.67 339.683 1828.78 347.468 1831.23 356.422L1600.9 355.492C1599.96 351.418 1600.2 347.124 1601.57 343.203C1602.94 339.282 1605.38 335.929 1608.55 333.606Z" fill="#26414D"/>
<path d="M148.517 375.815C152.153 372.868 156.483 371.145 160.986 370.853C165.489 370.56 169.973 371.711 173.897 374.167C179.448 362.878 188.727 354.383 199.805 350.449C210.884 346.515 222.909 347.443 233.384 353.041C236.069 340.533 242.534 329.407 251.714 321.495C260.894 313.584 272.241 309.359 283.887 309.516C295.533 309.674 306.783 314.204 315.784 322.361C324.786 330.518 331.002 341.816 333.409 354.393C333.715 358.433 335.041 362.298 337.237 365.548C341.41 370.28 348.377 368.674 354.31 368.167C363.693 367.605 372.976 370.523 380.683 376.457C388.39 382.391 394.077 390.999 396.839 400.912L139.713 399.898C138.754 395.372 139.085 390.629 140.661 386.318C142.237 382.007 144.981 378.339 148.517 375.815Z" fill="#26414D"/>
<path d="M1099.89 70.5058C1103.77 67.3696 1108.39 65.5377 1113.19 65.2304C1117.99 64.9231 1122.77 66.1534 1126.95 68.7735C1132.87 56.7654 1142.75 47.7369 1154.54 43.566C1166.34 39.3951 1179.13 40.403 1190.27 46.3801C1193.13 33.054 1200.01 21.1993 1209.79 12.7694C1219.56 4.33944 1231.65 -0.162788 1244.06 0.00449911C1256.46 0.171786 1268.45 4.99861 1278.04 13.6897C1287.62 22.3807 1294.24 34.4175 1296.8 47.8167C1297.16 52.1266 1298.57 56.2471 1300.9 59.7316C1305.34 64.7173 1312.73 63.0272 1319.04 62.478C1329.04 61.8995 1338.92 65.0177 1347.13 71.339C1355.34 77.6604 1361.41 86.8235 1364.37 97.3778L1090.51 96.4483C1089.44 91.5845 1089.76 86.4725 1091.45 81.8231C1093.13 77.1736 1096.08 73.2178 1099.89 70.5058Z" fill="#E6E6E6"/>
</g>
</g>
<defs>
<filter id="filter0_df_160_19716" x="-28.9" y="-17.9" width="1951.9" height="1639.8" filterUnits="userSpaceOnUse" color-interpolation-filters="sRGB">
<feFlood flood-opacity="0" result="BackgroundImageFix"/>
<feColorMatrix in="SourceAlpha" type="matrix" values="0 0 0 0 0 0 0 0 0 0 0 0 0 0 0 0 0 0 127 0" result="hardAlpha"/>
<feOffset dx="-22" dy="-5"/>
<feGaussianBlur stdDeviation="6.45"/>
<feComposite in2="hardAlpha" operator="out"/>
<feColorMatrix type="matrix" values="0 0 0 0 0 0 0 0 0 0 0 0 0 0 0 0 0 0 0.25 0"/>
<feBlend mode="normal" in2="BackgroundImageFix" result="effect1_dropShadow_160_19716"/>
<feBlend mode="normal" in="SourceGraphic" in2="effect1_dropShadow_160_19716" result="shape"/>
<feGaussianBlur stdDeviation="1.5" result="effect2_foregroundBlur_160_19716"/>
</filter>
<clipPath id="clip0_160_19716">
<rect width="1920" height="1614" fill="white"/>
</clipPath>
</defs>
</svg>
