<svg xmlns="http://www.w3.org/2000/svg" width="75" height="60" viewBox="0 0 75 60" fill="none">
  <path d="M19.7931 12.0351C19.7931 12.0351 19.8282 14.1797 19.8282 14.414C20.8946 14.0625 28.547 11.5898 35.7306 11.332C41.8126 11.1211 50.1212 10.8281 61.8634 18.0468C64.1368 19.5 70.5235 23.4492 73.5352 30.9023C74.1798 32.4609 75.0118 35.9765 74.1798 39.2695C73.7931 40.7695 73.1368 42.1875 72.2462 43.4531C70.2071 46.3828 66.7852 48.3281 63.0938 48.6562C57.8907 49.1133 53.9415 46.7812 52.547 42.4101C51.586 39.3867 52.547 34.957 56.2384 32.6953C59.2384 30.8554 62.4845 31.2773 64.3477 32.5078C65.9766 33.5859 66.9024 35.2617 66.879 37.1015C66.8438 40.3593 64.0313 42.0937 62.0157 42.0937C61.3829 42.0937 60.7618 41.9883 60.1641 41.7773C59.4024 41.5664 58.6056 41.0156 58.6056 40.0312C58.6056 38.6133 59.9649 38.2968 60.5743 38.4023C60.9141 38.4609 61.1016 38.6367 61.9571 38.6836C62.1915 38.6601 63.3634 38.3203 63.3634 37.0429V37.0312C63.3399 35.5898 61.8165 34.9218 60.3751 35.0508C56.5899 35.3789 54.7852 39.8203 57.0352 42.75C59.1798 45.5273 66.0118 45.4687 68.7188 40.3593C71.7657 34.5937 67.2306 27.3281 58.5235 28.8281C54.6329 29.4961 48.7266 32.9883 46.5235 41.0508H41.1446C41.8126 38.9883 42.1876 33.0468 36.1407 33.0468C29.4962 33.0468 28.6524 37.7226 26.7892 41.0508H21.0938C22.5938 38.9062 23.6368 36.5156 23.3087 34.5117C22.6524 30.5508 18.6563 32.3554 13.6524 32.4726C5.85946 32.5195 1.68759 29.3086 1.5704 29.1914C1.13681 28.8281 0.808685 27.3398 0.750092 27.1172C0.597748 26.5195 1.12508 26.8359 1.12508 26.8359C2.14462 27.4453 4.6993 28.6172 7.08993 28.664C10.0548 28.7226 16.0196 25.6875 16.6524 25.3593C16.6876 25.3125 16.6407 25.5 17.9415 22.3711C7.58212 29.2031 4.07822 27.1172 0.925873 24.914C0.832123 24.8437 0.421959 24.5742 0.50399 24.2461C2.12118 18.6093 3.12899 16.8984 4.54696 16.0898C8.8829 13.5586 19.1954 12.0234 19.6876 11.9531C19.6759 11.9414 19.7931 11.9179 19.7931 12.0351ZM3.90243 20.8711C3.94283 22.0397 4.44581 23.1444 5.30071 23.9421C6.15561 24.7399 7.29241 25.1654 8.46102 25.125C9.62963 25.0846 10.7343 24.5816 11.5321 23.7267C12.3299 22.8718 12.7553 21.735 12.7149 20.5664C12.6745 19.3978 12.1716 18.2931 11.3166 17.4953C10.4617 16.6975 9.32494 16.2721 8.15633 16.3125C6.98772 16.3529 5.88303 16.8559 5.08527 17.7108C4.28751 18.5657 3.86202 19.7025 3.90243 20.8711ZM8.1915 17.6015C8.60835 17.5661 9.02805 17.6158 9.42505 17.7478C9.82204 17.8798 10.188 18.0912 10.5007 18.3692C10.8133 18.6472 11.0661 18.9859 11.2436 19.3648C11.4211 19.7436 11.5196 20.1546 11.5332 20.5727C11.5467 20.9909 11.475 21.4074 11.3224 21.7969C11.1697 22.1864 10.9394 22.5408 10.6454 22.8384C10.3514 23.1361 9.99985 23.3707 9.61222 23.5281C9.22459 23.6855 8.80898 23.7623 8.39071 23.7539C7.97385 23.7893 7.55415 23.7396 7.15716 23.6076C6.76016 23.4756 6.39419 23.2642 6.08154 22.9862C5.76889 22.7082 5.51611 22.3695 5.33861 21.9907C5.16109 21.6118 5.06257 21.2008 5.04903 20.7827C5.03548 20.3646 5.10722 19.948 5.25985 19.5585C5.41248 19.169 5.64281 18.8146 5.93682 18.517C6.23083 18.2194 6.58236 17.9847 6.96998 17.8273C7.3576 17.6699 7.77322 17.5931 8.1915 17.6015ZM7.68758 20.9765C9.49227 20.9765 9.49227 19.1484 7.68758 19.1484C5.8829 19.1484 5.8829 20.9765 7.68758 20.9765Z" fill="white"/>
</svg>