<svg width="50" height="49" viewBox="0 0 50 49" fill="none" xmlns="http://www.w3.org/2000/svg">
<circle cx="25" cy="24.5" r="24.5" fill="#277DA1"/>
<g clip-path="url(#clip0_1098_1636)">
<path d="M26.455 11.9141C26.1882 11.3555 25.6243 11 25.005 11C24.3858 11 23.8269 11.3555 23.555 11.9141L20.3177 18.6324L13.0879 19.709C12.4837 19.8004 11.9802 20.227 11.7939 20.8109C11.6077 21.3949 11.7587 22.0398 12.1917 22.4715L17.4379 27.707L16.1993 35.1059C16.0986 35.7152 16.3504 36.3348 16.8488 36.6953C17.3472 37.0559 18.0068 37.1016 18.5505 36.8121L25.0101 33.3336L31.4696 36.8121C32.0134 37.1016 32.6729 37.0609 33.1714 36.6953C33.6698 36.3297 33.9215 35.7152 33.8208 35.1059L32.5773 27.707L37.8235 22.4715C38.2564 22.0398 38.4125 21.3949 38.2212 20.8109C38.0299 20.227 37.5314 19.8004 36.9273 19.709L29.6924 18.6324L26.455 11.9141Z" fill="#F9C74F"/>
<path d="M26.455 11.9141C26.1882 11.3555 25.6243 11 25.005 11C24.3858 11 23.8269 11.3555 23.555 11.9141L20.3177 18.6324L13.0879 19.709C12.4837 19.8004 11.9802 20.227 11.7939 20.8109C11.6077 21.3949 11.7587 22.0398 12.1917 22.4715L17.4379 27.707L16.1993 35.1059C16.0986 35.7152 16.3504 36.3348 16.8488 36.6953C17.3472 37.0559 18.0068 37.1016 18.5505 36.8121L25.0101 33.3336L31.4696 36.8121C32.0134 37.1016 32.6729 37.0609 33.1714 36.6953C33.6698 36.3297 33.9215 35.7152 33.8208 35.1059L32.5773 27.707L37.8235 22.4715C38.2564 22.0398 38.4125 21.3949 38.2212 20.8109C38.0299 20.227 37.5314 19.8004 36.9273 19.709L29.6924 18.6324L26.455 11.9141Z" fill="white" fill-opacity="0.3"/>
</g>
<defs>
<clipPath id="clip0_1098_1636">
<rect width="29" height="26" fill="white" transform="translate(10.5 11)"/>
</clipPath>
</defs>
</svg>
